HIERARCHY
ROOT root
{
	OFFSET	0	13.1	24.9
	CHANNELS 6  Xposition Yposition Zposition Xrotation Yrotation Zrotation
	JOINT spine_1
	{
		OFFSET	0	9.99999	0
		CHANNELS 3  Xrotation Yrotation Zrotation
		JOINT spine_2
		{
			OFFSET	0	112	-10
			CHANNELS 3  Xrotation Yrotation Zrotation
			JOINT spine_3
			{
				OFFSET	0	206.5	19.3
				CHANNELS 3  Xrotation Yrotation Zrotation
				JOINT spine_4
				{
					OFFSET	0	110.4	14.6
					CHANNELS 3  Xrotation Yrotation Zrotation
					JOINT neck_1
					{
						OFFSET	0	71.8	-50.3
						CHANNELS 3  Xrotation Yrotation Zrotation
						JOINT neck_2
						{
							OFFSET	0	86.2	-25.8
							CHANNELS 3  Xrotation Yrotation Zrotation
							JOINT head_ee
							{
								OFFSET	0	179.8	-8.7
								CHANNELS 3  Xrotation Yrotation Zrotation
								End Site
								{
									OFFSET	1	0	0
								}
							}
						}
					}
					JOINT left_clavicle
					{
						OFFSET	-43.2	22.4	-70.8
						CHANNELS 3  Xrotation Yrotation Zrotation
						JOINT left_shoulder
						{
							OFFSET	-93.9	-5.79999	48.7
							CHANNELS 3  Xrotation Yrotation Zrotation
							JOINT left_elbow
							{
								OFFSET	-291.4	-30.8	15.2
								CHANNELS 3  Xrotation Yrotation Zrotation
								JOINT left_lowarm_twist
								{
									OFFSET	-110.7	-3.89999	13.6
									CHANNELS 3  Xrotation Yrotation Zrotation
									JOINT left_hand
									{
										OFFSET	-110.7	-3.89999	13.6
										CHANNELS 3  Xrotation Yrotation Zrotation
										JOINT left_ee
										{
											OFFSET	-80.8	-5.10001	12.1
											CHANNELS 3  Xrotation Yrotation Zrotation
											End Site
											{
												OFFSET	1	0	0
											}
										}
									}
								}
							}
						}
					}
					JOINT right_clavicle
					{
						OFFSET	43.2	22.4	-70.8
						CHANNELS 3  Xrotation Yrotation Zrotation
						JOINT right_shoulder
						{
							OFFSET	93.9	-5.79999	48.7
							CHANNELS 3  Xrotation Yrotation Zrotation
							JOINT right_elbow
							{
								OFFSET	291.4	-30.8	15.2
								CHANNELS 3  Xrotation Yrotation Zrotation
								JOINT right_lowarm_twist
								{
									OFFSET	110.7	-3.89999	13.6
									CHANNELS 3  Xrotation Yrotation Zrotation
									JOINT right_hand
									{
										OFFSET	110.7	-3.89999	13.6
										CHANNELS 3  Xrotation Yrotation Zrotation
										JOINT right_ee
										{
											OFFSET	80.8	-5.10001	12.1
											CHANNELS 3  Xrotation Yrotation Zrotation
											End Site
											{
												OFFSET	1	0	0
											}
										}
									}
								}
							}
						}
					}
				}
			}
		}
	}
	JOINT left_hip
	{
		OFFSET	-82.8	-127.5	0.300001
		CHANNELS 3  Xrotation Yrotation Zrotation
		JOINT left_knee
		{
			OFFSET	-28.2	-396.7	2.2
			CHANNELS 3  Xrotation Yrotation Zrotation
			JOINT left_ankle
			{
				OFFSET	-11.7	-411.3	35.4
				CHANNELS 3  Xrotation Yrotation Zrotation
				JOINT left_toes
				{
					OFFSET	0	-60	-88.6
					CHANNELS 3  Xrotation Yrotation Zrotation
					JOINT left_foot_ee
					{
						OFFSET	-22.5	-16.5	-42.2
						CHANNELS 3  Xrotation Yrotation Zrotation
						End Site
						{
							OFFSET	1	0	0
						}
					}
				}
			}
		}
	}
	JOINT right_hip
	{
		OFFSET	82.8	-127.5	0.300001
		CHANNELS 3  Xrotation Yrotation Zrotation
		JOINT right_knee
		{
			OFFSET	28.2	-396.7	2.2
			CHANNELS 3  Xrotation Yrotation Zrotation
			JOINT right_ankle
			{
				OFFSET	11.7	-411.3	35.4
				CHANNELS 3  Xrotation Yrotation Zrotation
				JOINT right_toes
				{
					OFFSET	0	-60	-88.6
					CHANNELS 3  Xrotation Yrotation Zrotation
					JOINT right_foot_ee
					{
						OFFSET	22.5	-16.5	-42.2
						CHANNELS 3  Xrotation Yrotation Zrotation
						End Site
						{
							OFFSET	1	0	0
						}
					}
				}
			}
		}
	}
}
MOTION
Frames: 8
Frame Time: 0.02
675.417 760.278 -1261.42 160.517 -37.8513 162.171 -8.41737 0.645985 3.60359 -8.41024 0.415526 3.63733 -8.3638 -0.885241 3.55246 -8.38127 -0.31348 3.64753 -2.14041 10.4526 -2.8508 -1.8488 21.1491 -1.64008 -0.0 0.0 -0.0 2.85593 10.4576 6.13374 19.9028 -10.0728 61.7951 0.637914 -17.5368 0.0983952 56.9621 -1.51106 -6.82072 -6.78682 -24.0972 -67.2938 -0.0 0.0 -0.0 11.9777 17.9435 -24.0134 -24.1334 43.8158 -36.5468 0.903514 24.1118 -0.192973 -83.6481 8.28252 -5.21578 -9.02959 -15.6928 62.2108 0.0 0.0 0.0 -14.5915 19.1211 8.791 -12.1229 0.306327 1.83177 41.7981 24.0011 -5.30423 -32.5196 0.0 0.0 -0.0 0.0 -0.0 6.34241 37.6522 2.92122 -45.0081 0.815718 -6.68467 -18.8742 -24.7555 -2.95112 38.72 -0.0 -0.0 0.0 0.0 0.0 
688.422 765.916 -1258.11 161.733 -38.4456 162.933 -8.21304 0.669108 3.38505 -8.20678 0.452482 3.42071 -8.16202 -0.762676 3.36522 -8.17775 -0.221962 3.44333 -2.35821 10.46 -2.80967 -2.07886 21.148 -1.55586 -0.0 0.0 -0.0 2.87856 10.5342 6.17652 20.4655 -10.1526 61.9495 0.783605 -21.2149 0.146755 58.0366 -1.60228 -6.92388 -6.89429 -23.8037 -68.8361 -0.0 0.0 -0.0 12.1507 17.9354 -24.4111 -24.6201 43.6707 -36.9732 0.849546 22.8231 -0.17148 -82.8108 8.17721 -5.23308 -9.09057 -16.6283 61.4379 0.0 0.0 0.0 -14.9807 20.1449 8.40265 -12.3053 0.307957 1.8597 43.004 23.9508 -5.41129 -31.8969 0.0 0.0 -0.0 0.0 -0.0 8.75039 33.3207 3.26484 -44.7674 0.797584 -6.65239 -18.762 -23.3755 -2.91407 38.7641 -0.0 -0.0 0.0 0.0 0.0 
708.2 772.379 -1254.9 162.344 -39.3844 164.075 -8.09174 0.685586 3.24168 -8.08602 0.478034 3.27868 -8.04234 -0.682533 3.24232 -8.05697 -0.162197 3.30934 -2.55872 10.4932 -2.66492 -2.29432 21.1118 -1.36206 -0.0 0.0 -0.0 2.71872 10.5627 5.90346 21.2521 -10.4015 61.7419 0.911245 -24.2943 0.196142 58.7804 -1.66656 -6.99429 -6.96487 -23.6071 -69.9018 -0.0 0.0 -0.0 12.0022 17.6703 -24.0846 -25.3621 43.0896 -37.1057 0.804482 21.728 -0.154397 -82.1618 8.0954 -5.24542 -9.13445 -17.2843 60.8963 0.0 0.0 0.0 -14.7444 21.0854 9.09106 -12.354 0.308377 1.86716 43.5358 23.9423 -5.45791 -31.4607 0.0 0.0 -0.0 0.0 -0.0 10.8151 29.6682 2.32999 -44.6815 0.791137 -6.64084 -18.6813 -22.4117 -2.88912 38.7905 -0.0 -0.0 0.0 0.0 0.0 
718.876 766.136 -1256.45 161.236 -41.2273 163.357 -8.00122 0.608692 3.05662 -7.99612 0.413053 3.08911 -7.95964 -0.673728 3.04296 -7.97251 -0.184938 3.11109 -2.20173 10.4953 -2.65469 -1.9204 21.0779 -1.41564 -0.0 0.0 -0.0 2.96751 10.9067 6.34724 21.7586 -10.9662 61.6212 1.24166 -31.5937 0.351295 58.9824 -1.68418 -7.01327 -7.02622 -22.4182 -70.5349 -0.0 0.0 -0.0 12.2484 17.9617 -24.6344 -27.7376 40.8931 -39.0686 0.727482 19.8178 -0.127084 -82.1755 8.09713 -5.24516 -9.35026 -19.5059 59.8693 0.0 0.0 0.0 -19.6665 21.3404 11.5792 -4.90397 0.17062 0.733044 40.1228 24.108 -5.15133 -31.3026 0.0 0.0 -0.0 0.0 -0.0 17.854 25.9076 -2.5422 -45.6202 0.862464 -6.76643 -23.6333 -21.7418 -3.64977 37.4165 -0.0 -0.0 0.0 0.0 0.0 
735.199 756.205 -1246.02 160.143 -41.9509 162.586 -7.94415 0.5531 2.89828 -7.93956 0.367635 2.92757 -7.90818 -0.658264 2.87624 -7.91966 -0.195961 2.94403 -0.988205 10.5569 -2.88877 -0.633361 21.2688 -1.87764 -0.0 0.0 -0.0 3.07956 11.2815 6.55563 21.6448 -11.2634 60.8622 1.5061 -36.7234 0.499922 59.1231 -1.69648 -7.02645 -7.03595 -21.8211 -70.4842 -0.0 0.0 -0.0 12.3865 19.0675 -24.8863 -30.0984 39.0673 -40.2622 0.667652 18.301 -0.107545 -82.244 8.10577 -5.24391 -9.48143 -20.9468 58.9583 0.0 0.0 0.0 -23.795 21.2889 11.6342 -0.700572 0.0282121 0.103809 37.8324 24.2008 -4.93077 -31.1594 0.0 0.0 -0.0 0.0 -0.0 20.7647 25.0773 -3.05425 -46.2911 0.914709 -6.85549 -25.2147 -21.2783 -3.88667 35.8457 -0.0 -0.0 0.0 0.0 0.0 
759.009 750.415 -1237.84 159.578 -42.6759 162.792 -7.83434 0.514912 2.6411 -7.83052 0.34587 2.66848 -7.80402 -0.585043 2.62646 -7.8136 -0.163057 2.68585 -0.194017 10.6363 -2.92806 0.206094 21.3696 -2.05518 -0.0 0.0 -0.0 3.1519 11.5031 6.68818 21.5663 -11.4864 60.329 1.7128 -40.3102 0.628706 59.2085 -1.70397 -7.03444 -7.04337 -21.4198 -70.4571 -0.0 0.0 -0.0 12.414 19.8677 -24.8962 -31.8284 37.7834 -41.153 0.626327 17.2373 -0.0949327 -82.2997 8.11279 -5.24287 -9.57777 -21.9596 58.3174 0.0 0.0 0.0 -26.6642 21.2622 12.0131 2.23939 -0.0986741 -0.329438 36.2859 24.1583 -4.77265 -31.054 0.0 0.0 -0.0 0.0 -0.0 22.18 24.7353 -2.98575 -46.7549 0.951436 -6.91669 -26.1334 -20.9571 -4.02277 34.7313 -0.0 -0.0 0.0 0.0 0.0 
781.505 750.771 -1229.72 160.589 -42.8329 163.301 -7.70494 0.519298 2.70908 -7.70092 0.345926 2.73661 -7.67363 -0.602123 2.6919 -7.6837 -0.1696 2.75315 0.0898979 10.8577 -2.46671 0.490082 21.3635 -1.58275 -0.0 0.0 -0.0 3.34848 9.99368 6.96332 20.9894 -11.7311 59.2637 1.88148 -42.9807 0.740823 59.5541 -1.73439 -7.06664 -7.02096 -23.2074 -70.7085 -0.0 0.0 -0.0 11.7558 19.8114 -23.3879 -33.2756 36.8803 -41.9873 0.71127 19.4095 -0.121642 -82.3371 8.11751 -5.24218 -9.81533 -24.0798 57.2688 0.0 0.0 0.0 -28.8904 20.6341 13.0339 3.9133 -0.180818 -0.57309 38.4866 22.0101 -4.93471 -31.2263 0.0 0.0 -0.0 0.0 -0.0 20.3093 25.5471 -1.34786 -36.2279 0.24439 -5.46299 -25.3517 -22.1595 -3.92175 29.7731 -0.0 -0.0 0.0 0.0 0.0 
795.853 758.207 -1226.88 161.13 -43.2372 163.397 -7.60676 0.51704 2.72204 -7.6027 0.342849 2.7494 -7.57551 -0.604727 2.70393 -7.58567 -0.170275 2.76544 0.272695 11.0209 -2.13605 0.672641 21.3661 -1.23918 -0.0 0.0 -0.0 3.83958 8.97992 7.78519 19.9744 -11.7665 59.0784 2.05145 -45.4557 0.859387 59.6849 -1.74595 -7.07878 -7.01363 -23.8787 -70.7878 -0.0 0.0 -0.0 11.5712 20.4437 -22.9207 -33.4608 36.2658 -43.6268 0.731975 19.9306 -0.128612 -82.369 8.12153 -5.24158 -10.0645 -26.1814 56.1613 0.0 0.0 0.0 -29.9459 19.6114 14.4278 4.62773 -0.218043 -0.676346 39.8689 18.8994 -4.99179 -31.148 0.0 0.0 -0.0 0.0 -0.0 18.423 26.2654 0.176019 -28.9317 -0.0835007 -4.39223 -24.0867 -22.4489 -3.73084 26.454 -0.0 -0.0 0.0 0.0 0.0 
